<?xml version="1.0" encoding="utf-8"?>
<!-- Generator: Adobe Illustrator 28.0.0, SVG Export Plug-In . SVG Version: 6.00 Build 0)  -->
<svg version="1.1" id="Layer_1" xmlns="http://www.w3.org/2000/svg" xmlns:xlink="http://www.w3.org/1999/xlink" x="0px" y="0px"
	 viewBox="0 0 53.9 21" style="enable-background:new 0 0 53.9 21;" xml:space="preserve">
<style type="text/css">
	.st0{fill:none;}
	.st1{enable-background:new    ;}
	.st2{fill:#FFFCD5;}
</style>
<rect x="-0.1" y="2" class="st0" width="53" height="17"/>
<g class="st1">
	<path class="st2" d="M19.3,8.8c0,0.2-0.2,0.4-0.4,0.4h-2.2c-0.2,0-0.4-0.2-0.4-0.4V5v0c0-0.4-0.3-0.7-0.6-0.7
		c-0.3,0-0.6,0.3-0.6,0.7v3.9c0,0.2-0.2,0.4-0.4,0.4h-2.2c-0.2,0-0.4-0.2-0.4-0.4V2.4c0-0.2,0.2-0.4,0.4-0.4h2.2
		c0.2,0,0.4,0.2,0.4,0.4v1.3c0.2-0.1,0.5-0.2,0.8-0.2H18c0.7,0,1.3,0.4,1.3,1V8.8z"/>
	<path class="st2" d="M23,2.7C23,2.9,22.9,3,22.6,3h-2.2c-0.2,0-0.4-0.2-0.4-0.4V2.4c0-0.2,0.2-0.4,0.4-0.4h2.2
		C22.9,2,23,2.2,23,2.4V2.7z M23,8.8c0,0.2-0.2,0.4-0.4,0.4h-2.2c-0.2,0-0.4-0.2-0.4-0.4v-5c0-0.2,0.2-0.4,0.4-0.4h2.2
		c0.2,0,0.4,0.2,0.4,0.4V8.8z"/>
	<path class="st2" d="M30.6,8.2c0,0.5-0.6,1-1.3,1h-4.1c-0.7,0-1.3-0.4-1.3-1V2.7c0-0.2,0.2-0.4,0.4-0.4h2.2c0.2,0,0.4,0.2,0.4,0.4
		v0.8h2.7c0.2,0,0.4,0.2,0.4,0.4v0.3c0,0.2-0.2,0.4-0.4,0.4h-2.7v3.2c0,0.4,0.3,0.7,0.6,0.7c0.3,0,0.6-0.3,0.6-0.7V5.5
		c0-0.2,0.2-0.4,0.4-0.4h1.9c0.2,0,0.4,0.2,0.4,0.4V8.2z"/>
	<path class="st2" d="M38.4,8.2c0,0.5-0.6,1-1.3,1h-4.3c-0.7,0-1.3-0.4-1.3-1V4.4c0-0.5,0.6-1,1.3-1h4.3c0.7,0,1.3,0.4,1.3,1v1.1
		c0,0.5-0.6,1-1.3,1h-2.8v1.2c0,0.4,0.3,0.7,0.6,0.7c0.3,0,0.6-0.3,0.6-0.7c0-0.2,0.2-0.4,0.4-0.4H38c0.2,0,0.4,0.2,0.4,0.4V8.2z
		 M35.5,5.8V5c0-0.4-0.3-0.7-0.6-0.7c-0.3,0-0.6,0.3-0.6,0.7v0.8H35.5z"/>
</g>
<g class="st1">
	<path class="st2" d="M9.5,17.1c-0.1,0.6-0.3,1.1-0.5,1.1h-2c-0.1,0-0.3,0-0.4-0.7L5.7,11l-0.8,6.5c-0.1,0.6-0.2,0.7-0.4,0.7h-2
		c-0.2,0-0.4-0.5-0.5-1.1L0,2C0,1.5,0.1,1,0.4,1h2.8C3.4,1,3.6,1.5,3.6,2l0.8,8.3L5.5,3h0.3l1.1,7.4L7.8,2C7.8,1.5,8,1,8.3,1H11
		c0.2,0,0.4,0.5,0.3,1.1L9.5,17.1z"/>
</g>
<g class="st1">
	<path class="st2" d="M18.9,17.2c0,0.5-0.6,1-1.3,1h-4.3c-0.7,0-1.3-0.4-1.3-1v-1.1c0-0.7,0.7-1.2,1.6-1.2h2.4v-1
		c0-0.4-0.3-0.7-0.6-0.7c-0.3,0-0.6,0.3-0.6,0.7v0c0,0.2-0.2,0.4-0.4,0.4h-2c-0.2,0-0.4-0.2-0.4-0.4v-0.6c0-0.5,0.6-1,1.3-1h4.2
		c0.7,0,1.3,0.4,1.3,1V17.2z M16.1,16.5v-0.8h-1.2v1c0,0.4,0.3,0.7,0.6,0.7c0.3,0,0.6-0.3,0.6-0.7V16.5z"/>
	<path class="st2" d="M26.6,17.2c0,0.5-0.6,1-1.3,1H21c-0.7,0-1.3-0.4-1.3-1v-0.7c0-0.2,0.2-0.4,0.4-0.4h2.1c0.2,0,0.4,0.2,0.4,0.4
		v0.2c0,0.4,0.3,0.7,0.6,0.7s0.6-0.3,0.6-0.7c0-0.4-0.1-0.6-0.2-0.7c-0.1-0.1-1.5-0.4-2.2-0.6c-0.9-0.2-1.6-0.5-1.6-1.6v-0.4
		c0-0.5,0.6-1,1.3-1h4.2c0.7,0,1.3,0.4,1.3,1v0.7c0,0.2-0.2,0.4-0.4,0.4h-2.1c-0.2,0-0.4-0.2-0.4-0.4V14c0-0.4-0.3-0.7-0.6-0.7
		s-0.6,0.3-0.6,0.7c0,0.4,0.1,0.6,0.2,0.7c0.1,0.1,1.5,0.4,2.2,0.6c0.8,0.2,1.6,0.5,1.6,1.6V17.2z"/>
	<path class="st2" d="M34.3,17.8c0,0.2-0.2,0.4-0.4,0.4h-2.2c-0.2,0-0.4-0.2-0.4-0.4V14v0c0-0.4-0.3-0.7-0.6-0.7s-0.6,0.3-0.6,0.7
		v3.9c0,0.2-0.2,0.4-0.4,0.4h-2.2c-0.2,0-0.4-0.2-0.4-0.4v-6.5c0-0.2,0.2-0.4,0.4-0.4h2.2c0.2,0,0.4,0.2,0.4,0.4v1.3
		c0.2-0.1,0.5-0.2,0.8-0.2H33c0.7,0,1.3,0.4,1.3,1V17.8z"/>
	<path class="st2" d="M42.1,17.2c0,0.5-0.6,1-1.3,1h-4.3c-0.7,0-1.3-0.4-1.3-1v-3.8c0-0.5,0.6-1,1.3-1h4.3c0.7,0,1.3,0.4,1.3,1v1.1
		c0,0.5-0.6,1-1.3,1h-2.8v1.2c0,0.4,0.3,0.7,0.6,0.7c0.3,0,0.6-0.3,0.6-0.7c0-0.2,0.2-0.4,0.4-0.4h2.2c0.2,0,0.4,0.2,0.4,0.4V17.2z
		 M39.3,14.8V14c0-0.4-0.3-0.7-0.6-0.7c-0.3,0-0.6,0.3-0.6,0.7v0.8H39.3z"/>
	<path class="st2" d="M50,17.8c0,0.2-0.2,0.4-0.4,0.4h-2.2l-0.3-0.3c-0.2,0.2-0.6,0.3-0.9,0.3h-1.9c-0.7,0-1.3-0.4-1.3-1v-3.8
		c0-0.5,0.6-1,1.3-1h1.9c0.3,0,0.6,0.1,0.8,0.2v-1.3c0-0.2,0.2-0.4,0.4-0.4h2.2c0.2,0,0.4,0.2,0.4,0.4V17.8z M47.1,14
		c0-0.4-0.3-0.7-0.6-0.7c-0.3,0-0.6,0.3-0.6,0.7v2.7c0,0.4,0.3,0.7,0.6,0.7c0.3,0,0.6-0.3,0.6-0.7V14z"/>
</g>
</svg>
